<svg width="467" height="466" viewBox="0 0 467 466" fill="none" xmlns="http://www.w3.org/2000/svg">
<g clip-path="url(#clip0_121_407)">
<path d="M233.764 233.008L161.689 11.4042C186.191 3.45094 208.001 0 233.764 0V233.008Z" fill="#C0FFD3"/>
<path d="M233.763 233.008L11.9414 161.005C35.8247 87.5716 88.1835 35.2641 161.689 11.4043L233.763 233.008Z" fill="#93C5A2"/>
<path d="M233.763 233.008L11.9416 305.012C-3.98055 256.056 -3.98055 209.96 11.9416 161.005L233.763 233.008Z" fill="#588C67"/>
<path d="M233.763 233.008L294.129 458.077C174.682 490.051 50.1546 422.504 11.9414 305.011L233.763 233.008Z" fill="#51C173"/>
<path d="M233.764 233.008V0C362.577 0 467.001 104.321 467.001 233.008C467.001 341.105 398.646 430.099 294.13 458.076L233.764 233.008Z" fill="#B0FF5A"/>
</g>
<defs>
<clipPath id="clip0_121_407">
<rect width="467" height="466" fill="white"/>
</clipPath>
</defs>
</svg>
